Coordinates
version=1
nRows=14
nColumns=40
inDegrees=yes

Units are S.I. units (second, meters, Newtons, ...)
Angles are in degrees.

endheader
time	pelvis_tilt	pelvis_list	pelvis_rotation	pelvis_tx	pelvis_ty	pelvis_tz	hip_flexion_r	hip_adduction_r	hip_rotation_r	knee_angle_r	knee_angle_r_beta	ankle_angle_r	subtalar_angle_r	mtp_angle_r	hip_flexion_l	hip_adduction_l	hip_rotation_l	knee_angle_l	knee_angle_l_beta	ankle_angle_l	subtalar_angle_l	mtp_angle_l	lumbar_extension	lumbar_bending	lumbar_rotation	arm_flex_r	arm_add_r	arm_rot_r	elbow_flex_r	pro_sup_r	wrist_flex_r	wrist_dev_r	arm_flex_l	arm_add_l	arm_rot_l	elbow_flex_l	pro_sup_l	wrist_flex_l	wrist_dev_l
     45.65750000	     -6.29799136	     -6.77877574	      7.43942561	      0.93685859	      0.91826147	      0.51806433	     -0.13400093	      4.52319969	    -18.64437170	     14.64156658	     14.64156658	     17.62294585	      4.66522213	     -2.77782476	     29.72170156	     -8.07021414	      4.03147105	     29.10281423	     29.10281423	      8.79878147	    -14.90405150	      8.53406744	     -9.01668244	      4.95053312	      4.85658268	     56.68870283	    -19.12119311	    -11.96957382	     55.39220398	     45.42001796	      0.00000000	      0.00000000	    -14.11262297	     -9.85326110	     10.85174288	     37.92388163	     44.75352698	      0.00000000	      0.00000000
     45.67657143	     -6.47436596	     -6.82494806	      7.00475621	      0.93748640	      0.91881267	      0.51353623	     -0.26794483	      4.15384204	    -18.37508185	     14.87938550	     14.87938550	     17.35877554	      4.89186665	     -2.80193530	     29.37708990	     -7.97426614	      3.73233093	     29.21612036	     29.21612036	      9.23221377	    -15.19118678	      8.47609740	     -8.98033119	      5.16754855	      4.89088989	     56.11400009	    -18.89866009	    -11.97484336	     54.93119731	     45.43420816	      0.00000000	      0.00000000	    -13.46123570	    -10.15628057	     10.70511052	     38.33947681	     44.78388973	      0.00000000	      0.00000000
     45.69564286	     -6.63532370	     -6.65886651	      6.52025735	      0.93802873	      0.91932454	      0.50890152	     -0.25484147	      3.40019750	    -18.50440658	     15.49153237	     15.49153237	     16.89743050	      5.60768805	     -4.02072451	     28.95227403	     -7.68617656	      3.24369201	     29.33645699	     29.33645699	     10.18516864	    -15.23686436	      9.61999278	     -8.91463891	      5.01859400	      4.57243642	     56.61644413	    -18.07251100	    -13.46266474	     51.05929212	     45.65103625	      0.00000000	      0.00000000	    -14.13355938	    -10.90165261	      9.95229616	     41.92239078	     44.97513819	      0.00000000	      0.00000000
     45.71471429	     -6.77985168	     -6.62809005	      6.05551525	      0.93861903	      0.91990313	      0.50437699	     -0.30107664	      2.91656089	    -18.16129550	     15.92745198	     15.92745198	     16.63934490	      5.72814326	     -4.11962468	     28.47382687	     -7.54801603	      2.80752555	     29.31120243	     29.31120243	     10.67407864	    -15.35214728	      9.49786828	     -8.89267669	      5.10333875	      4.53466568	     55.65622422	    -17.97519476	    -13.55526907	     50.36795039	     45.67566627	      0.00000000	      0.00000000	    -13.46170241	    -11.31502090	      9.73641381	     42.29870173	     45.01633828	      0.00000000	      0.00000000
     45.73378571	     -6.91292705	     -6.50664247	      5.58708297	      0.93908414	      0.92042233	      0.49974317	     -0.22371588	      2.24858450	    -17.96359943	     16.61546726	     16.61546726	     16.14606957	      5.92465902	     -5.29283808	     27.95865871	     -7.33097679	      2.22397829	     29.25415823	     29.25415823	     11.22820346	    -15.31613599	      9.59020040	     -8.82773451	      5.12833308	      4.35327714	     55.49820819	    -17.41769231	    -15.00135625	     47.26716459	     45.85651079	      0.00000000	      0.00000000	    -13.33622818	    -11.93476041	      9.24064914	     44.17988421	     45.18152002	      0.00000000	      0.00000000
     45.75285714	     -7.02810470	     -6.40026673	      5.12591650	      0.93954117	      0.92098629	      0.49514281	     -0.06785551	      1.60263656	    -17.62205210	     17.46431351	     17.46431351	     15.88276525	      5.91604935	     -5.63488474	     27.39255730	     -7.12393925	      1.65490330	     29.11649437	     29.11649437	     11.68711854	    -15.30241303	      9.45331175	     -8.80881850	      5.18602508	      4.37491005	     54.27564581	    -17.45630396	    -15.27282359	     46.19264463	     45.90219210	      0.00000000	      0.00000000	    -12.54742725	    -12.40660337	      8.96136740	     44.64260084	     45.24071093	      0.00000000	      0.00000000
     45.77192857	     -7.07682541	     -6.29409400	      4.70596001	      0.94001147	      0.92157662	      0.49051984	      0.02822451	      0.97099050	    -17.26563598	     18.27564378	     18.27564378	     15.25775629	      5.77485846	     -6.95901491	     26.76298781	     -6.89076127	      1.15782613	     28.97092447	     28.97092447	     12.15657111	    -15.31354737	      9.33438668	     -8.81078274	      5.25560422	      4.10280942	     53.50255073	    -17.10506993	    -16.44583335	     43.61921946	     46.04678144	      0.00000000	      0.00000000	    -11.93619539	    -12.92161518	      8.78330585	     45.30731070	     45.34658912	      0.00000000	      0.00000000
     45.79100000	     -7.01763584	     -6.44723105	      4.33709177	      0.94050727	      0.92233097	      0.48594766	      0.00494780	      0.64654820	    -16.99631369	     19.01724641	     19.01724641	     14.79320271	      5.77563880	     -7.04327130	     26.12802524	     -6.89191745	      0.87892696	     28.94166739	     28.94166739	     12.60000629	    -15.48215716	      9.21768417	     -8.98046382	      5.66697077	      3.68611622	     51.96579145	    -16.71107430	    -16.46734051	     42.93974805	     46.06301773	      0.00000000	      0.00000000	    -11.12442261	    -13.39111580	      8.61066464	     45.52772866	     45.37615760	      0.00000000	      0.00000000
     45.81007143	     -7.16564893	     -6.08393642	      3.82941017	      0.94071287	      0.92258924	      0.48133710	      0.88953263	     -0.46864784	    -16.41850420	     21.12807527	     21.12807527	     14.44800589	      5.04339598	     -8.24771319	     25.53325258	     -6.40356681	      0.16193989	     28.70322793	     28.70322793	     13.00997907	    -15.42947638	      9.10759765	     -8.86143533	      5.46545320	      3.96952828	     50.23403173	    -17.13992459	    -16.95762588	     41.01838955	     46.15095320	      0.00000000	      0.00000000	     -9.90262233	    -13.86186555	      8.34568018	     45.71932979	     45.43542964	      0.00000000	      0.00000000
     45.82914286	     -7.11377965	     -5.94194243	      3.40603604	      0.94101079	      0.92306505	      0.47681817	      1.47857684	     -1.25962180	    -15.85306539	     22.98966556	     22.98966556	     13.82188724	      4.29956648	     -9.29947549	     24.82943040	     -6.10592167	     -0.29625555	     28.57347934	     28.57347934	     13.45835306	    -15.53583565	      9.02045475	     -8.98603128	      5.53787535	      3.76513287	     48.45969426	    -17.06337486	    -17.28612868	     39.42646857	     46.21743603	      0.00000000	      0.00000000	     -8.74136081	    -14.30463576	      8.20725459	     45.62507507	     45.47365575	      0.00000000	      0.00000000
     45.84821429	     -7.04042319	     -5.93924854	      2.99854697	      0.94118280	      0.92340440	      0.47245235	      2.11147646	     -1.76905834	    -14.89873807	     24.71295384	     24.71295384	     11.75352562	      2.19504918	    -13.83330655	     24.23531065	     -5.92370794	     -0.56663938	     28.62471557	     28.62471557	     13.98866720	    -15.74892412	      9.17097049	     -9.04239903	      5.81965650	      3.80567915	     47.24333159	    -17.02433145	    -18.80853958	     35.58054122	     46.43745898	      0.00000000	      0.00000000	     -6.63422795	    -14.47818806	      8.66658326	     43.57527376	     45.50572373	      0.00000000	      0.00000000
     45.86728571	     -6.99052651	     -5.82201210	      2.56785214	      0.94122488	      0.92344434	      0.46810544	      3.26980290	     -2.63773049	    -14.26543761	     27.56057108	     27.56057108	     10.97778684	      1.11717695	    -14.84752992	     23.66173007	     -5.63552629	     -0.95900105	     28.66526466	     28.66526466	     14.45257607	    -15.90738110	      9.06339768	     -9.19082377	      5.97236416	      3.41506437	     45.09342217	    -16.71130144	    -19.05225138	     34.44333872	     46.47948999	      0.00000000	      0.00000000	     -5.48904739	    -14.88848100	      8.52286757	     43.66255204	     45.54530998	      0.00000000	      0.00000000
     45.88635714	     -6.88941488	     -5.83811085	      2.13984387	      0.94105579	      0.92328530	      0.46406347	      4.56344096	     -3.15732456	    -13.07169137	     30.52650443	     30.52650443	      9.32702774	     -1.54581886	    -17.32102734	     23.19020522	     -5.48611351	     -1.22240239	     28.93227459	     28.93227459	     15.01233853	    -16.22240149	      9.22719594	     -9.35379250	      6.27178451	      3.49446980	     42.84496990	    -16.84402488	    -19.74440869	     32.42242784	     46.58357645	      0.00000000	      0.00000000	     -3.42286647	    -15.04531920	      8.73759322	     42.44454266	     45.57659483	      0.00000000	      0.00000000
     45.90542857	     -6.76109800	     -5.77327601	      1.71422975	      0.94074125	      0.92281044	      0.46015828	      6.10572528	     -3.82654499	    -12.04255283	     33.96342698	     33.96342698	      7.48482417	     -4.03880525	    -19.76095752	     22.75023082	     -5.25270251	     -1.46745932	     29.31424098	     29.31424098	     15.75614803	    -16.43526270	      9.51140915	     -9.55821533	      6.49773248	      3.43995008	     40.51162493	    -16.65976565	    -20.66607387	     30.64795960	     46.68930899	      0.00000000	      0.00000000	     -1.22389155	    -15.26330970	      9.35152165	     40.76172096	     45.58879687	      0.00000000	      0.00000000
